HIERARCHY
ROOT Hips
{
	OFFSET 0.000000 71.427986 0.000000
	CHANNELS 6 Xposition Yposition Zposition Xrotation Yrotation Zrotation
	JOINT Pelvis
	{
		OFFSET 0.000000 0.000000 0.000000
		CHANNELS 3 Xrotation Yrotation Zrotation
		JOINT LeftUpLeg
		{
			OFFSET 6.797100 -2.508499 -1.318700
			CHANNELS 3 Xrotation Yrotation Zrotation
			JOINT LeftLeg
			{
				OFFSET 0.069008 -29.241863 0.690200
				CHANNELS 3 Xrotation Yrotation Zrotation
				JOINT LeftFoot
				{
					OFFSET -0.069008 -29.568123 -0.266800
					CHANNELS 3 Xrotation Yrotation Zrotation
					JOINT LeftToeBase
					{
						OFFSET 3.145500 -8.631000 16.059900
						CHANNELS 3 Xrotation Yrotation Zrotation
						End Site
						{
							OFFSET 0.000000 18.501587 0.000000
						}
					}
				}
			}
			JOINT Left_ShortSleeve
			{
				OFFSET 0.265923 -10.480953 1.153800
				CHANNELS 3 Xrotation Yrotation Zrotation
				End Site
				{
					OFFSET 1.725763 19.823879 0.000000
				}
			}
		}
		JOINT RightUpLeg
		{
			OFFSET -6.797100 -2.508499 -1.318700
			CHANNELS 3 Xrotation Yrotation Zrotation
			JOINT RightLeg
			{
				OFFSET -0.082453 -29.241932 0.688000
				CHANNELS 3 Xrotation Yrotation Zrotation
				JOINT RightFoot
				{
					OFFSET 0.082453 -29.568058 -0.264600
					CHANNELS 3 Xrotation Yrotation Zrotation
					JOINT RightToeBase
					{
						OFFSET -3.115300 -8.682800 16.113400
						CHANNELS 3 Xrotation Yrotation Zrotation
						End Site
						{
							OFFSET 0.000000 18.567114 0.000000
						}
					}
				}
			}
			JOINT Right_ShortSleeve
			{
				OFFSET -0.265923 -10.480953 1.153800
				CHANNELS 3 Xrotation Yrotation Zrotation
				End Site
				{
					OFFSET -1.725766 19.823910 0.000000
				}
			}
		}
	}
	JOINT Spine
	{
		OFFSET 0.000000 13.368103 0.470500
		CHANNELS 3 Xrotation Yrotation Zrotation
		JOINT Spine1
		{
			OFFSET 0.147000 13.837402 0.538800
			CHANNELS 3 Xrotation Yrotation Zrotation
			JOINT Spine2
			{
				OFFSET 0.168000 16.242897 -1.435500
				CHANNELS 3 Xrotation Yrotation Zrotation
				JOINT Neck
				{
					OFFSET 0.217200 18.631500 -1.679100
					CHANNELS 3 Xrotation Yrotation Zrotation
					JOINT Head
					{
						OFFSET 0.000000 6.599396 1.385900
						CHANNELS 3 Xrotation Yrotation Zrotation
						JOINT Hat
						{
							OFFSET -0.532200 27.220596 -10.096100
							CHANNELS 3 Xrotation Yrotation Zrotation
							End Site
							{
								OFFSET 0.000000 22.029861 0.000000
							}
						}
						JOINT HairD
						{
							OFFSET -10.777400 17.437393 -1.325900
							CHANNELS 3 Xrotation Yrotation Zrotation
							JOINT HairD1
							{
								OFFSET -3.290299 -11.051193 1.062200
								CHANNELS 3 Xrotation Yrotation Zrotation
								End Site
								{
									OFFSET 0.000000 11.579437 0.000000
								}
							}
						}
						JOINT HairB
						{
							OFFSET -10.777400 17.437393 1.467900
							CHANNELS 3 Xrotation Yrotation Zrotation
							JOINT HairB1
							{
								OFFSET -1.561200 -12.956299 3.590200
								CHANNELS 3 Xrotation Yrotation Zrotation
								End Site
								{
									OFFSET 0.000000 13.534866 0.000000
								}
							}
						}
						JOINT HairA
						{
							OFFSET 9.713100 17.437393 1.467900
							CHANNELS 3 Xrotation Yrotation Zrotation
							JOINT HairA1
							{
								OFFSET 1.561200 -12.956299 3.590200
								CHANNELS 3 Xrotation Yrotation Zrotation
								End Site
								{
									OFFSET 0.000000 13.534866 0.000000
								}
							}
						}
						JOINT HairC
						{
							OFFSET 9.713100 17.437393 -1.325900
							CHANNELS 3 Xrotation Yrotation Zrotation
							JOINT HairC1
							{
								OFFSET 3.290300 -11.051193 1.062200
								CHANNELS 3 Xrotation Yrotation Zrotation
								End Site
								{
									OFFSET 0.000000 11.579437 0.000000
								}
							}
						}
					}
				}
				JOINT LeftShoulder
				{
					OFFSET 5.101800 15.108002 -2.763700
					CHANNELS 3 Xrotation Yrotation Zrotation
					JOINT LeftArm
					{
						OFFSET 9.825497 2.506317 -1.597400
						CHANNELS 3 Xrotation Yrotation Zrotation
						JOINT LeftForeArm
						{
							OFFSET 21.966244 0.000000 0.000000
							CHANNELS 3 Xrotation Yrotation Zrotation
							JOINT LeftHand
							{
								OFFSET 33.879036 0.000000 0.000000
								CHANNELS 3 Xrotation Yrotation Zrotation
								JOINT LeftHandThumb1
								{
									OFFSET 6.715286 -2.359680 3.363841
									CHANNELS 3 Xrotation Yrotation Zrotation
									JOINT LeftHandThumb2
									{
										OFFSET 2.507072 -1.447464 1.447461
										CHANNELS 3 Xrotation Yrotation Zrotation
										JOINT LeftHandThumb3
										{
											OFFSET 2.898338 -1.673355 1.673357
											CHANNELS 3 Xrotation Yrotation Zrotation
											End Site
											{
												OFFSET -0.295959 3.727692 -0.131651
											}
										}
									}
								}
								JOINT LeftHandIndex1
								{
									OFFSET 14.190811 -0.254547 3.840278
									CHANNELS 3 Xrotation Yrotation Zrotation
									JOINT LeftHandIndex2
									{
										OFFSET 3.551727 0.000000 -0.000000
										CHANNELS 3 Xrotation Yrotation Zrotation
										JOINT LeftHandIndex3
										{
											OFFSET 2.894196 0.000000 0.000000
											CHANNELS 3 Xrotation Yrotation Zrotation
											End Site
											{
												OFFSET -1.000603 2.690872 0.366626
											}
										}
									}
								}
								JOINT LeftHandMiddle1
								{
									OFFSET 13.776489 0.000000 0.000000
									CHANNELS 3 Xrotation Yrotation Zrotation
									JOINT LeftHandMiddle2
									{
										OFFSET 3.438232 0.000000 0.000000
										CHANNELS 3 Xrotation Yrotation Zrotation
										JOINT LeftHandMiddle3
										{
											OFFSET 3.691551 0.000000 0.000000
											CHANNELS 3 Xrotation Yrotation Zrotation
											End Site
											{
												OFFSET -1.082298 3.499527 0.457670
											}
										}
									}
								}
								JOINT LeftHandRing1
								{
									OFFSET 13.966164 -0.268127 -3.067488
									CHANNELS 3 Xrotation Yrotation Zrotation
									JOINT LeftHandRing2
									{
										OFFSET 3.162567 0.000000 0.000000
										CHANNELS 3 Xrotation Yrotation Zrotation
										JOINT LeftHandRing3
										{
											OFFSET 3.324348 0.000000 0.000000
											CHANNELS 3 Xrotation Yrotation Zrotation
											End Site
											{
												OFFSET -0.861900 3.184998 0.405154
											}
										}
									}
								}
								JOINT LeftHandPinky1
								{
									OFFSET 13.131393 -0.168503 -5.746925
									CHANNELS 3 Xrotation Yrotation Zrotation
									JOINT LeftHandPinky2
									{
										OFFSET 2.849182 0.000000 0.000000
										CHANNELS 3 Xrotation Yrotation Zrotation
										JOINT LeftHandPinky3
										{
											OFFSET 2.805038 0.000000 0.000000
											CHANNELS 3 Xrotation Yrotation Zrotation
											End Site
											{
												OFFSET -0.882500 2.642609 0.325652
											}
										}
									}
								}
							}
							JOINT Left_Sleeve
							{
								OFFSET 6.592125 -0.646545 0.805568
								CHANNELS 3 Xrotation Yrotation Zrotation
								End Site
								{
									OFFSET -0.000179 20.275787 -0.000000
								}
							}
						}
					}
				}
				JOINT RightShoulder
				{
					OFFSET -5.731700 15.108002 -2.763700
					CHANNELS 3 Xrotation Yrotation Zrotation
					JOINT RightArm
					{
						OFFSET -9.825497 2.506317 -1.597400
						CHANNELS 3 Xrotation Yrotation Zrotation
						JOINT RightForeArm
						{
							OFFSET -21.966242 0.000000 0.000000
							CHANNELS 3 Xrotation Yrotation Zrotation
							JOINT RightHand
							{
								OFFSET -33.879032 0.000000 0.000000
								CHANNELS 3 Xrotation Yrotation Zrotation
								JOINT RightHandThumb1
								{
									OFFSET -6.715286 -2.359680 3.363841
									CHANNELS 3 Xrotation Yrotation Zrotation
									JOINT RightHandThumb2
									{
										OFFSET -2.507072 -1.447464 1.447461
										CHANNELS 3 Xrotation Yrotation Zrotation
										JOINT RightHandThumb3
										{
											OFFSET -2.898338 -1.673355 1.673357
											CHANNELS 3 Xrotation Yrotation Zrotation
											End Site
											{
												OFFSET 0.295959 3.727692 -0.131651
											}
										}
									}
								}
								JOINT RightHandIndex1
								{
									OFFSET -14.190811 -0.254547 3.840278
									CHANNELS 3 Xrotation Yrotation Zrotation
									JOINT RightHandIndex2
									{
										OFFSET -3.551727 0.000000 -0.000000
										CHANNELS 3 Xrotation Yrotation Zrotation
										JOINT RightHandIndex3
										{
											OFFSET -2.894196 0.000000 0.000000
											CHANNELS 3 Xrotation Yrotation Zrotation
											End Site
											{
												OFFSET 1.000603 2.690872 0.366626
											}
										}
									}
								}
								JOINT RightHandMiddle1
								{
									OFFSET -13.776489 0.000000 0.000000
									CHANNELS 3 Xrotation Yrotation Zrotation
									JOINT RightHandMiddle2
									{
										OFFSET -3.438232 0.000000 0.000000
										CHANNELS 3 Xrotation Yrotation Zrotation
										JOINT RightHandMiddle3
										{
											OFFSET -3.691551 0.000000 0.000000
											CHANNELS 3 Xrotation Yrotation Zrotation
											End Site
											{
												OFFSET 1.082298 3.499527 0.457670
											}
										}
									}
								}
								JOINT RightHandRing1
								{
									OFFSET -13.966164 -0.268127 -3.067488
									CHANNELS 3 Xrotation Yrotation Zrotation
									JOINT RightHandRing2
									{
										OFFSET -3.162567 0.000000 0.000000
										CHANNELS 3 Xrotation Yrotation Zrotation
										JOINT RightHandRing3
										{
											OFFSET -3.324348 0.000000 0.000000
											CHANNELS 3 Xrotation Yrotation Zrotation
											End Site
											{
												OFFSET 0.861900 3.184998 0.405154
											}
										}
									}
								}
								JOINT RightHandPinky1
								{
									OFFSET -13.131393 -0.168503 -5.746925
									CHANNELS 3 Xrotation Yrotation Zrotation
									JOINT RightHandPinky2
									{
										OFFSET -2.849182 0.000000 0.000000
										CHANNELS 3 Xrotation Yrotation Zrotation
										JOINT RightHandPinky3
										{
											OFFSET -2.805038 0.000000 0.000000
											CHANNELS 3 Xrotation Yrotation Zrotation
											End Site
											{
												OFFSET 0.882500 2.642609 0.325652
											}
										}
									}
								}
							}
							JOINT Right_Sleeve
							{
								OFFSET -6.592125 -0.646545 0.805568
								CHANNELS 3 Xrotation Yrotation Zrotation
								End Site
								{
									OFFSET 0.000179 20.275787 -0.000000
								}
							}
						}
					}
				}
				JOINT Bind_Right_JacketString
				{
					OFFSET -3.534800 11.969597 7.200700
					CHANNELS 3 Xrotation Yrotation Zrotation
					JOINT Bind_Right_JacketString1
					{
						OFFSET -0.319900 -6.102600 2.794100
						CHANNELS 3 Xrotation Yrotation Zrotation
						End Site
						{
							OFFSET 0.000000 6.719452 0.000000
						}
					}
				}
				JOINT Bind_Left_JacketString
				{
					OFFSET 2.904800 11.969597 7.200700
					CHANNELS 3 Xrotation Yrotation Zrotation
					JOINT Bind_Left_JacketString1
					{
						OFFSET 0.364800 -5.904503 3.186800
						CHANNELS 3 Xrotation Yrotation Zrotation
						End Site
						{
							OFFSET 0.000000 6.719513 0.000000
						}
					}
				}
				JOINT HairE
				{
					OFFSET 5.915200 17.612701 -11.592200
					CHANNELS 3 Xrotation Yrotation Zrotation
					JOINT HairE1
					{
						OFFSET 0.289200 -7.171898 -1.284500
						CHANNELS 3 Xrotation Yrotation Zrotation
						End Site
						{
							OFFSET 0.000000 7.291756 0.000000
						}
					}
				}
				JOINT HairF
				{
					OFFSET -0.864800 17.612701 -11.592200
					CHANNELS 3 Xrotation Yrotation Zrotation
					JOINT HairF1
					{
						OFFSET 0.000000 -14.087097 -2.127501
						CHANNELS 3 Xrotation Yrotation Zrotation
						End Site
						{
							OFFSET 0.000000 14.246841 0.000000
						}
					}
				}
				JOINT HairG
				{
					OFFSET -8.087700 17.612701 -11.592200
					CHANNELS 3 Xrotation Yrotation Zrotation
					JOINT HairG1
					{
						OFFSET -0.293600 -6.081398 -0.910100
						CHANNELS 3 Xrotation Yrotation Zrotation
						End Site
						{
							OFFSET 0.000000 6.156120 0.000000
						}
					}
				}
			}
		}
	}
	JOINT Pouch
	{
		OFFSET 0.000000 4.394501 10.847300
		CHANNELS 3 Xrotation Yrotation Zrotation
		End Site
		{
			OFFSET 0.000000 21.880577 0.000000
		}
	}
	JOINT Bag
	{
		OFFSET -13.229000 4.813004 -0.593300
		CHANNELS 3 Xrotation Yrotation Zrotation
		End Site
		{
			OFFSET 0.000000 21.880577 0.000000
		}
	}
	JOINT OccupyGuyFacialAnim_Joint
	{
		OFFSET 1.000000 -70.206398 -1.655000
		CHANNELS 3 Xrotation Yrotation Zrotation
		End Site
		{
			OFFSET 0.000000 21.880577 0.000000
		}
	}
}
MOTION
Frames: 4
Frame Time: 0.016667
-0.263695 149.262009 2.118471 -4.558484 4.905897 4.129719 -0.000000 0.000001 0.000001 -2.769780 16.827508 7.155360 9.349550 -8.134502 -0.393793 -4.012603 0.505609 -6.178429 -0.000000 -0.000001 -0.000000 -0.000000 0.000001 -0.000001 0.768653 -10.794476 -4.671899 22.215342 6.006366 0.293516 -27.532592 -1.212003 3.942686 -0.000001 -0.000000 0.000000 -0.000000 -0.000000 -0.000000 4.645121 -0.700056 1.406960 9.932387 -0.680239 3.008161 9.936600 -0.617924 3.002060 -0.494625 1.768444 -5.437058 5.110712 1.939358 -6.547526 -0.000002 0.000000 -0.000000 -0.000002 0.000000 -0.000000 -0.000002 0.000000 -0.000000 -0.000002 0.000000 -0.000000 -0.000000 -0.000001 0.000001 -0.000002 0.000000 -0.000000 -0.000000 -0.000001 0.000001 -0.000002 0.000000 -0.000000 -0.000002 0.000000 -0.000000 -0.221751 14.341898 -11.465859 4.441020 -10.208753 -60.164486 -0.000006 -50.304446 -0.000021 20.413443 -0.668112 -4.134509 -3.500395 23.141793 9.972881 -2.408842 12.775490 10.381841 -0.000001 0.000001 -0.000000 0.080928 1.054711 -8.775027 0.139265 1.380631 -11.520073 -0.000002 0.000001 -0.000003 0.080628 1.052807 -8.759041 0.139658 1.382519 -11.536056 0.000004 0.000002 -0.000001 0.080927 1.054707 -8.775021 0.139266 1.380632 -11.520081 -0.000000 0.000002 -0.000002 0.683436 5.064129 -8.296779 0.133617 -2.674910 -12.020571 -0.000005 0.000002 -0.000004 -0.000001 0.000001 -0.000001 1.119628 3.440112 7.346928 -5.089678 8.252988 56.488458 -0.000004 38.764547 -0.000012 3.115006 -7.514413 -6.985631 -7.604778 -2.521684 -16.076756 4.602790 -15.232184 -8.617176 0.000000 0.000000 -0.000005 0.672571 -2.988264 25.363096 0.151858 -1.448117 11.972160 -0.000002 -0.000001 -0.000002 0.672569 -2.988265 25.363083 0.151861 -1.448110 11.972173 0.000002 -0.000001 0.000001 0.672572 -2.988241 25.363079 0.151858 -1.448115 11.972166 0.000001 -0.000001 -0.000001 0.672572 -2.988260 25.363090 0.151854 -1.448118 11.972148 0.000002 0.000002 -0.000001 0.000001 0.000001 -0.000001 -0.000000 -0.000000 -0.000000 0.000001 0.000000 0.000001 -0.000000 -0.000000 -0.000000 -0.000000 -0.000000 -0.000000 -0.000000 -0.000000 -0.000000 0.000001 0.000000 0.000001 -0.000000 -0.000000 -0.000000 -0.000000 -0.000000 -0.000000 -0.000000 -0.000000 -0.000000 0.000001 0.000000 0.000001 -0.000000 0.000001 0.000001 -0.000000 0.000001 0.000001 -0.000000 0.000001 0.000001 
-0.280458 149.242493 2.073526 -4.307590 4.909005 4.121269 -0.000000 -0.000000 -0.000000 -3.317455 16.676253 7.211624 9.880969 -8.132272 -0.393735 -4.322860 0.526772 -6.105860 -0.000000 -0.000000 0.000000 0.000000 0.000000 0.000001 0.482661 -10.775338 -4.669931 22.239880 6.000055 0.293275 -27.660473 -1.212259 3.883650 0.000001 0.000000 -0.000001 0.000000 -0.000000 0.000000 4.616446 -0.696053 1.406179 9.886745 -0.664537 3.002673 9.891313 -0.602347 2.995066 -0.542381 1.841335 -5.558720 5.225232 2.094422 -6.610319 0.000002 0.000000 -0.000000 0.000002 0.000000 -0.000000 0.000002 0.000000 0.000000 0.000002 0.000000 -0.000000 0.000002 0.000001 -0.000000 0.000002 0.000000 -0.000000 0.000002 0.000001 -0.000000 0.000002 0.000000 -0.000000 0.000002 0.000000 -0.000000 -0.219946 14.506512 -11.612860 4.361432 -10.445363 -59.944691 0.000000 -50.526314 -0.000006 20.043443 -0.258917 -4.095662 -3.500397 23.141781 9.972895 -2.408843 12.775504 10.381871 0.000002 -0.000001 -0.000002 0.080923 1.054721 -8.775008 0.139268 1.380610 -11.520109 0.000001 -0.000002 -0.000002 0.080629 1.052807 -8.759035 0.139659 1.382519 -11.536060 0.000001 -0.000001 -0.000001 0.080928 1.054712 -8.775017 0.139266 1.380630 -11.520077 -0.000002 -0.000000 -0.000002 0.683432 5.064145 -8.296757 0.133616 -2.674908 -12.020560 0.000003 0.000000 -0.000002 0.000001 -0.000003 0.000002 1.111070 3.468514 7.163205 -4.424846 9.153710 56.002794 -0.000003 39.178628 -0.000004 2.112978 -7.565649 -7.684067 -7.604780 -2.521681 -16.076744 4.602795 -15.232188 -8.617195 0.000001 -0.000003 -0.000001 0.672566 -2.988266 25.363093 0.151859 -1.448115 11.972150 -0.000002 0.000001 0.000001 0.672569 -2.988266 25.363084 0.151857 -1.448114 11.972162 0.000001 -0.000000 -0.000003 0.672568 -2.988244 25.363086 0.151862 -1.448123 11.972146 0.000003 -0.000001 0.000000 0.672562 -2.988267 25.363084 0.151866 -1.448120 11.972150 0.000001 0.000001 -0.000001 0.000001 -0.000000 0.000001 -0.000000 0.000000 -0.000000 -0.000000 0.000001 0.000000 -0.000000 0.000000 0.000001 -0.000000 0.000000 0.000001 -0.000000 0.000000 -0.000000 -0.000000 0.000001 0.000001 -0.000000 0.000000 0.000001 -0.000000 0.000000 0.000001 -0.000000 0.000000 -0.000000 -0.000000 0.000001 0.000001 -0.000000 -0.000000 -0.000000 -0.000000 -0.000000 -0.000000 -0.000000 -0.000000 -0.000000 
-0.292564 149.219315 2.025664 -4.044902 4.932183 4.115563 -0.000000 0.000000 -0.000000 -3.956216 16.519031 7.266412 10.568106 -7.952890 -0.384540 -4.724779 0.556825 -6.051780 -0.000000 0.000000 0.000000 0.000000 -0.000001 -0.000000 0.169533 -10.754968 -4.673907 22.296031 5.979995 0.292389 -27.812148 -1.213627 3.822133 0.000000 -0.000000 -0.000000 0.000000 0.000000 0.000000 4.584161 -0.695352 1.399890 9.837532 -0.656225 2.999172 9.842313 -0.594124 2.990731 -0.552504 1.913020 -5.689796 5.267436 2.253985 -6.652774 0.000002 -0.000000 0.000000 0.000002 -0.000000 0.000000 0.000002 -0.000000 0.000000 0.000002 -0.000000 -0.000000 0.000002 -0.000000 -0.000000 0.000002 -0.000000 -0.000000 0.000002 -0.000000 -0.000000 0.000002 -0.000000 0.000000 0.000002 -0.000000 0.000000 -0.217720 14.595751 -11.694878 4.265767 -10.605529 -59.786319 0.000008 -50.764117 0.000008 19.817283 0.066168 -4.103492 -3.500392 23.141794 9.972885 -2.408847 12.775499 10.381870 0.000001 0.000001 -0.000000 0.080926 1.054711 -8.775018 0.139259 1.380634 -11.520057 0.000002 0.000000 -0.000000 0.080639 1.052792 -8.759036 0.139655 1.382526 -11.536050 0.000003 0.000000 -0.000001 0.080931 1.054703 -8.775004 0.139263 1.380626 -11.520065 -0.000001 0.000000 0.000002 0.683442 5.064126 -8.296782 0.133608 -2.674891 -12.020542 0.000000 0.000000 -0.000002 0.000000 0.000000 -0.000001 1.104808 3.548996 6.940641 -3.653396 10.119992 55.385270 0.000023 39.770740 -0.000031 0.971882 -7.983117 -7.726953 -7.604785 -2.521687 -16.076747 4.602790 -15.232186 -8.617209 -0.000000 -0.000002 -0.000004 0.672564 -2.988266 25.363078 0.151862 -1.448115 11.972183 -0.000003 0.000001 0.000000 0.672562 -2.988258 25.363093 0.151852 -1.448119 11.972169 0.000007 -0.000001 -0.000001 0.672565 -2.988244 25.363079 0.151852 -1.448118 11.972179 -0.000003 0.000001 0.000001 0.672566 -2.988259 25.363074 0.151856 -1.448118 11.972195 -0.000001 0.000002 0.000001 -0.000002 -0.000004 0.000001 -0.000001 -0.000000 0.000000 -0.000001 -0.000000 -0.000000 -0.000001 -0.000000 0.000000 -0.000001 -0.000000 0.000000 -0.000001 -0.000000 0.000000 -0.000001 -0.000000 0.000000 -0.000001 -0.000000 0.000000 -0.000001 -0.000000 0.000000 -0.000001 -0.000000 0.000000 -0.000001 -0.000000 0.000000 -0.000000 0.000000 -0.000000 -0.000000 0.000000 -0.000000 -0.000000 0.000000 -0.000000 
-0.300139 149.191742 1.970431 -3.770214 4.980763 4.114539 0.000000 0.000000 0.000000 -4.701593 16.370727 7.304115 11.438148 -7.445400 -0.358475 -5.205174 0.597905 -6.044839 -0.000000 0.000001 -0.000000 -0.000000 0.000000 -0.000000 -0.186388 -10.731378 -4.685897 22.403359 5.939526 0.290523 -27.986623 -1.215106 3.754136 0.000000 0.000000 -0.000000 -0.000000 0.000000 -0.000000 4.551222 -0.697669 1.388114 9.789338 -0.654194 2.995624 9.794232 -0.592128 2.986810 -0.544861 1.982234 -5.822368 5.258745 2.411930 -6.675186 -0.000000 0.000000 -0.000000 -0.000000 0.000000 -0.000000 -0.000000 0.000000 -0.000000 -0.000000 0.000000 -0.000000 -0.000000 0.000000 -0.000000 -0.000000 0.000000 -0.000000 -0.000000 0.000000 -0.000000 -0.000000 0.000000 -0.000000 -0.000000 0.000000 -0.000000 -0.216477 14.635951 -11.728228 4.166838 -10.728381 -59.653670 0.000007 -51.016612 0.000002 19.677568 0.328034 -4.160765 -3.500394 23.141801 9.972923 -2.408845 12.775501 10.381877 0.000000 -0.000001 -0.000001 0.080927 1.054721 -8.775016 0.139264 1.380624 -11.520078 -0.000003 0.000000 -0.000004 0.080635 1.052818 -8.759018 0.139660 1.382498 -11.536085 -0.000001 -0.000002 0.000004 0.080929 1.054718 -8.775002 0.139265 1.380621 -11.520081 -0.000005 0.000001 -0.000001 0.683436 5.064140 -8.296778 0.133622 -2.674910 -12.020545 -0.000001 0.000001 -0.000001 0.000000 0.000000 0.000001 1.100251 3.659960 6.697155 -2.825912 11.105684 54.696138 0.000013 40.467163 -0.000017 -0.149456 -8.609127 -7.429765 -7.604782 -2.521677 -16.076740 4.602791 -15.232189 -8.617213 0.000001 -0.000002 -0.000006 0.672567 -2.988272 25.363084 0.151854 -1.448104 11.972184 -0.000002 -0.000001 -0.000002 0.672564 -2.988267 25.363093 0.151862 -1.448119 11.972156 0.000005 -0.000001 0.000001 0.672563 -2.988247 25.363088 0.151850 -1.448119 11.972162 0.000002 -0.000001 -0.000000 0.672562 -2.988264 25.363083 0.151851 -1.448117 11.972172 -0.000000 0.000001 0.000001 0.000000 -0.000001 0.000000 0.000002 0.000000 -0.000000 0.000002 -0.000000 -0.000001 0.000002 0.000000 0.000001 0.000002 0.000000 0.000001 0.000002 0.000000 -0.000000 0.000002 -0.000000 -0.000001 0.000002 0.000000 0.000001 0.000002 0.000000 0.000001 0.000002 0.000000 -0.000000 0.000002 -0.000000 -0.000001 0.000000 0.000000 0.000000 0.000000 0.000000 0.000000 0.000000 0.000000 0.000000 
